<?xml version="1.0" encoding="utf-8"?>
<!-- Generator: Adobe Illustrator 19.2.1, SVG Export Plug-In . SVG Version: 6.00 Build 0)  -->
<svg version="1.1" id="Capa_1" xmlns="http://www.w3.org/2000/svg" xmlns:xlink="http://www.w3.org/1999/xlink" x="0px" y="0px"
	 viewBox="0 0 93 93" style="enable-background:new 0 0 93 93;" xml:space="preserve">
<style type="text/css">
	.st0{fill:#009ADC;}
	.st1{opacity:0.75;fill:#009ADC;enable-background:new    ;}
	.st2{opacity:0.5;fill:#009ADC;enable-background:new    ;}
	.st3{fill:#FFFFFF;}
</style>
<g>
	<path class="st0" d="M79.2,30.2c10.5,10.5,10.5,27.5,0,38L83,72c12.6-12.6,12.6-33,0-45.6L79.2,30.2z"/>
	<path class="st1" d="M75.3,34l-3.8,3.8c6.3,6.3,6.3,16.5,0,22.8l3.8,3.8C83.8,56.1,83.8,42.4,75.3,34z"/>
	<path class="st2" d="M63.9,45.4c1,1,1.6,2.4,1.6,3.8S64.9,52,63.9,53l3.8,3.8c2-2,3.1-4.7,3.1-7.6c0-2.9-1.1-5.6-3.1-7.6L63.9,45.4
		z"/>
	<path class="st3" d="M27.2,0.7C12.5,0.7,0.6,12.9,0.6,28v43.4c0,11.6,9.2,21.1,20.6,21.1c11.5,0,20.8-9.5,20.8-21.1v-6.2
		c0-5.3,3.4-9.2,7.3-13.8c5-5.8,10.6-12.5,10.6-23.4C59.9,10.4,48.3,0.7,27.2,0.7z M45.3,47.8C41,52.7,36.7,57.8,36.7,65v6.1
		c0,8.7-6.9,15.7-15.4,15.7c-8.4,0-15.2-7.1-15.2-15.7V28c0-12.1,9.5-21.9,21.2-21.9c18.1,0,27.3,7.4,27.3,21.9
		C54.5,36.9,49.8,42.4,45.3,47.8z"/>
	<path class="st3" d="M27.2,11.4c-8.7,0-15.8,7.4-15.8,16.5v10.5h5.4c3,0,5.4,2.4,5.4,5.4s-2.5,5.4-5.5,5.4H14v5.4h2.7
		c5.9,0,10.7-4.8,10.7-10.7s-4.8-10.7-10.7-10.7V28c0-6.1,4.7-11.1,10.4-11.1c7.4,0,12.4,1.4,14.8,4.2c1.8,2.1,1.8,4.9,1.8,7
		c0,4.6-2,7.4-6.7,12.8c-3.8,4.3-6.8,10.7-8.3,17.6c-0.9,4.1-4.9,7.2-9.3,7.2V71c3.3,0,6.6-1.1,9.3-3.2s4.6-5,5.3-8.2
		c1.3-5.9,4-11.6,7.1-15.2c4.8-5.6,8-9.7,8-16.3c0-2.4,0-6.8-3.1-10.5C42.6,13.4,36.4,11.4,27.2,11.4z"/>
</g>
</svg>
