<?xml version="1.0" encoding="utf-8"?>
<!-- Generator: Adobe Illustrator 19.2.1, SVG Export Plug-In . SVG Version: 6.00 Build 0)  -->
<svg version="1.1" id="Capa_1" xmlns="http://www.w3.org/2000/svg" xmlns:xlink="http://www.w3.org/1999/xlink" x="0px" y="0px"
	 viewBox="0 0 93 93" style="enable-background:new 0 0 93 93;" xml:space="preserve">
<style type="text/css">
	.st0{fill:#FFFFFF;}
</style>
<g>
	<path class="st0" d="M59.6,89.1V78.6c0-0.6,0.1-1.2,0.4-1.8l4.9-10.9c0.4-0.9,0.6-1.9,0.6-3v-3.2h19.1V8.4H74.3V1.1H58.3
		c-5.1,0-9.5,2.9-11.7,7.2C44.3,4,39.8,1.1,34.8,1.1H18.6v7.3H8.3v51.3h19.1v2.9c0,1.2,0.3,2.5,0.9,3.6l5.9,10.5
		c0.4,0.6,0.6,1.4,0.6,2.1v10.2H1v2.9h90.9v-2.9H59.6V89.1z M81.7,11.4v45.4H50.8v1.5c0,2.4-2,4.4-4.4,4.4c-0.2,0-0.4,0-0.5-0.1
		c-0.8-3.3-2.4-6.3-4.7-8.7h33.1V11.4H81.7z M21.5,4h13.2C40.5,4,45,8.6,45,14.3V26H48V14.3C48,8.6,52.5,4,58.3,4h13.2v46.9H47.9
		v-22H45v22h-5.9v-7.3c0-4.9-3.9-8.8-8.8-8.8c-1.6,0-2.9,1.3-2.9,2.9v13.2h-5.9C21.5,50.9,21.5,4,21.5,4z M11.3,56.8V11.4h7.3v42.5
		h8.8v2.9C27.4,56.8,11.3,56.8,11.3,56.8z M30.9,64.8c-0.4-0.7-0.6-1.4-0.6-2.1V37.8c3.2,0,5.9,2.6,5.9,5.9v9.4l2.6,2.6
		c3.1,3.1,4.8,7.1,4.8,11.5h2.9c0-0.5,0-1-0.1-1.5c0,0,0,0,0.1,0c3.5,0,6.5-2.5,7.2-5.9h8.9V63c0,0.6-0.1,1.2-0.4,1.8l-4.9,10.9
		c-0.2,0.6-0.4,1.1-0.5,1.7H37.5c-0.2-0.7-0.4-1.4-0.7-2L30.9,64.8z M37.8,86.1h13.1v-2.9H37.8v-2.9h19.1v2.9h-3v2.9h2.9V89h-19
		V86.1z"/>
	<rect x="58.3" y="39.2" class="st0" width="2.9" height="2.9"/>
	<rect x="64" y="39.2" class="st0" width="2.9" height="2.9"/>
	<rect x="52.3" y="39.2" class="st0" width="2.9" height="2.9"/>
	<rect x="50.8" y="45.1" class="st0" width="17.6" height="2.9"/>
	<rect x="50.8" y="33.4" class="st0" width="17.6" height="2.9"/>
	<rect x="50.8" y="23.1" class="st0" width="17.6" height="2.9"/>
	<rect x="50.8" y="17.2" class="st0" width="17.6" height="2.9"/>
	<rect x="50.8" y="11.4" class="st0" width="17.6" height="2.9"/>
	<rect x="31.8" y="17.2" class="st0" width="2.9" height="2.9"/>
	<rect x="37.8" y="17.2" class="st0" width="2.9" height="2.9"/>
	<rect x="25.9" y="17.2" class="st0" width="2.9" height="2.9"/>
	<rect x="24.5" y="11.4" class="st0" width="17.6" height="2.9"/>
	<rect x="24.5" y="23.1" class="st0" width="17.6" height="2.9"/>
	<rect x="24.5" y="29" class="st0" width="17.6" height="2.9"/>
</g>
</svg>
