<?xml version="1.0" encoding="utf-8"?>
<!-- Generator: Adobe Illustrator 19.2.1, SVG Export Plug-In . SVG Version: 6.00 Build 0)  -->
<svg version="1.1" id="Capa_1" xmlns="http://www.w3.org/2000/svg" xmlns:xlink="http://www.w3.org/1999/xlink" x="0px" y="0px"
	 viewBox="0 0 93 93" style="enable-background:new 0 0 93 93;" xml:space="preserve">
<style type="text/css">
	.st0{fill:#FFFFFF;}
	.st1{fill:#B7CA00;}
</style>
<g>
	<path class="st0" d="M74.8,40.1h-2.6c-2.1,0-3.9,1.7-3.9,3.9v0.5l-0.5,0.2c-1.3,0.6-2.1,1.9-2.1,3.4c0,1,0.4,2,1.1,2.7l1.5,1.5
		v11.5c0,0.2-0.1,0.4-0.2,0.5c-0.2,0.2-0.4,0.2-0.6,0.2l-0.7-0.1c-0.5-1.8-1.9-3-3.1-3.9c-1.1-1-1.8-1.6-1.8-2.3
		c0-1.8,0.3-3,0.6-4.2c0.3-1.3,0.7-2.7,0.7-4.8c0-3.4-1.8-6-2.6-6.9v-0.2c0-8.2-6.6-14.9-14.8-14.9S31,33.9,31,42v8.9
		c-1.4,0.8-3.9,2.8-3.9,7.3c0,2.2,1,4.1,2.4,5.7l-4.1,0.6c-0.2,0-0.4,0-0.6-0.2c-0.1-0.1-0.2-0.3-0.2-0.5V52.3l1.5-1.5
		c0.7-0.7,1.1-1.7,1.1-2.7c0-1.4-0.8-2.7-2.1-3.4l-0.5-0.2v-0.5c0-2.1-1.7-3.9-3.9-3.9h-2.6c-2.1,0-3.9,1.7-3.9,3.9v21.2
		c0,2.5,1,4.9,2.7,6.6c2.1,2.1,4.9,3,7.8,2.7l6.2-0.8v12.9h31V73.7l6.2,0.8c2.9,0.4,5.7-0.6,7.8-2.7c1.8-1.8,2.7-4.1,2.7-6.6V44
		C78.8,41.8,77,40.1,74.8,40.1L74.8,40.1z M69.2,47l1.9-1v-2.1c0-0.7,0.6-1.3,1.3-1.3h2.5c0.7,0,1.3,0.6,1.3,1.3v6.5h-5.9l-1.5-1.5
		c-0.2-0.2-0.4-0.5-0.4-0.9C68.4,47.6,68.7,47.2,69.2,47L69.2,47z M32.8,52.9l0.9-0.3V42c0-6.8,5.5-12.3,12.3-12.3
		S58.3,35.2,58.3,42v1.2l0.4,0.4c0,0,2.2,2.2,2.2,5.5c0,1.8-0.3,3-0.6,4.2c-0.3,1.3-0.7,2.7-0.7,4.8c0,1.9,1.5,3.2,2.8,4.3
		c0.6,0.5,1.1,1,1.6,1.5l-11-1.7v-2.5c2.4-1.9,3.9-4.8,3.9-8V41.4h-7c-2.8,0-5.5-0.8-7.8-2.4l-0.7-0.5l-5.2,3.4v9.7
		c0,3.8,2.1,7.1,5.1,8.9c-0.1,0.8-0.2,1.5-0.7,2l-0.8,0.9l0.9,0.9c1.2,1.2,2,2,2,4l-0.1,1.1c-0.3,1.6-1.2,4.2-4.5,6.2
		c-0.8-1.4-2-2.4-3.1-3.3c-0.5-0.5-1-0.9-1.4-1.3l0,0l0,0c-0.8-0.8-1.3-1.6-1.3-2.6c0-0.8,0.1-1.4,0.3-1.9c2.7,1.9,5.5,3,5.7,3.1
		l0.9-2.4c-2.6-1-9.5-4.6-9.5-9.1C29.7,54.1,32.6,53,32.8,52.9L32.8,52.9z M46.5,59.5c-4.3,0-7.7-3.5-7.7-7.7v-8.3l2.6-1.7
		c2.6,1.5,5.5,2.3,8.5,2.3h4.4v7.7C54.3,56,50.8,59.5,46.5,59.5L46.5,59.5z M46.5,62c1.4,0,2.7-0.3,3.9-0.8v1.5l-4.5,4.5H45
		c-0.3-1.7-1-2.9-1.9-3.8c0.3-0.6,0.5-1.1,0.6-1.7C44.6,61.9,45.5,62,46.5,62L46.5,62z M45.1,69.8h0.8l1.3,1.3L48.8,84h-4.9
		L45.1,69.8L45.1,69.8L45.1,69.8z M48.3,68.5l3.8-3.8h0.2L50.9,71L48.3,68.5z M18.1,42.7h2.6c0.7,0,1.3,0.6,1.3,1.3V46l1.9,1
		c0.4,0.2,0.7,0.6,0.7,1.1c0,0.3-0.1,0.6-0.4,0.9l-1.5,1.5h-5.9V44C16.8,43.3,17.4,42.7,18.1,42.7L18.1,42.7z M24.4,71.8
		c-2.1,0.3-4.2-0.4-5.6-1.9c-1.3-1.3-2-3-2-4.8V53H22v10.8c0,0.9,0.3,1.7,1,2.3c0.7,0.7,1.8,1.1,2.8,0.9l4.2-0.7
		c-0.2,0.6-0.3,1.3-0.3,2.1c0,1,0.3,1.9,0.7,2.7L24.4,71.8z M33.5,74.6c1.2,1,2.2,2,2.6,3.3l0.5,1.4l1.3-0.7c1.7-0.9,3-1.8,4-2.9
		l-0.6,8.2h-7.8V74.6z M74.2,69.8c-1.5,1.5-3.5,2.2-5.6,1.9l-6.4-0.8h-2.7v12.9h-7.9l-1.3-9.9l2.2,2.2l2.4-11.1L67.3,67
		c1,0.2,2.1-0.2,2.8-0.9c0.6-0.6,1-1.4,1-2.3V53h5.2v12.1C76.2,67,75.4,68.7,74.2,69.8L74.2,69.8z"/>
	<g>
		<path class="st1" d="M46.5,24.6c5,0,9-4.1,9-9s-4.1-9-9-9c-5,0-9,4.1-9,9S41.5,24.6,46.5,24.6L46.5,24.6z M46.5,9.1
			c3.6,0,6.5,2.9,6.5,6.5s-2.9,6.5-6.5,6.5S40,19.2,40,15.6S42.9,9.1,46.5,9.1L46.5,9.1z"/>
		<path class="st1" d="M51.3,13.9l-1.8-1.8l-4.2,4.2l-1.7-1.7l-1.8,1.8l3.5,3.5L51.3,13.9z"/>
	</g>
	<path class="st0" d="M18.1,37.5c2.8,0,5.2-2.3,5.2-5.2V30c0-0.9,0.4-1.7,1.1-2.1c3.3-2.1,5.3-5.8,5.3-9.8c0-3.3-1.4-6.5-3.9-8.7
		S20,6.1,16.8,6.4c-5.2,0.6-9.5,4.8-10.2,10C6,21.2,8,25.5,11.8,28c0.7,0.4,1.1,1.3,1.1,2.2v2.3C12.9,35.2,15.2,37.5,18.1,37.5
		L18.1,37.5z M18.1,34.9c-1.4,0-2.6-1.2-2.6-2.6h5.2C20.6,33.8,19.5,34.9,18.1,34.9L18.1,34.9z M16.8,18.2c0-0.7,0.6-1.3,1.3-1.3
		c0.7,0,1.3,0.6,1.3,1.3c0,0.7-0.6,1.3-1.3,1.3S16.8,18.9,16.8,18.2L16.8,18.2z M9.1,17c0.5-4,3.8-7.3,7.9-7.8
		c0.4,0,0.7-0.1,1.1-0.1c2.2,0,4.3,0.8,6,2.3c1.9,1.7,3,4.2,3,6.7c0,3.1-1.6,5.9-4.2,7.6c-1.4,0.9-2.2,2.4-2.3,4h-1.3v-8
		c1.5-0.5,2.6-2,2.6-3.6c0-2.1-1.7-3.9-3.9-3.9s-3.9,1.7-3.9,3.9c0,1.7,1.1,3.1,2.6,3.6v8h-1.3c-0.1-1.7-0.9-3.1-2.3-4
		C10.2,23.9,8.7,20.5,9.1,17L9.1,17z"/>
	<path class="st0" d="M86.5,17.2l-3.2-1l1.5-3l-5-5l-3,1.5l-1-3.1h-7l-1.1,3.2l-3-1.5l-5,5l1.5,3l-3.1,0.9v7l3.2,1.1l-1.5,3l5,5
		l3-1.5l1.1,3.2h7l1.1-3.2l3,1.5l5-5l-1.5-3l3.2-1.1v-7H86.5z M83.9,22.4l-3,1L80.8,24c-0.1,0.2-0.1,0.3-0.2,0.5l-0.3,0.6l1.4,2.8
		l-2.3,2.3l-2.8-1.4l-0.6,0.3c-0.2,0.1-0.3,0.1-0.5,0.2l-0.6,0.2l-1,3h-3.3l-1-3L69,29.2c-0.2-0.1-0.3-0.1-0.5-0.2l-0.6-0.3
		l-2.8,1.4l-2.3-2.3l1.4-2.8l-0.3-0.6c-0.1-0.2-0.1-0.3-0.2-0.5l-0.2-0.6l-3-1V19l3-1l0.2-0.6c0.1-0.2,0.1-0.3,0.2-0.5l0.3-0.6
		l-1.4-2.8l2.3-2.3l2.8,1.4l0.6-0.3c0.2-0.1,0.3-0.1,0.5-0.2l0.6-0.2l1-3h3.3l1,3l0.6,0.2c0.2,0.1,0.3,0.1,0.5,0.2l0.6,0.3l2.8-1.4
		l2.3,2.3l-1.4,2.8l0.3,0.6c0.1,0.2,0.1,0.3,0.2,0.5L81,18l3,1L83.9,22.4L83.9,22.4z"/>
	<path class="st0" d="M72.3,14.3c-3.6,0-6.5,2.9-6.5,6.5s2.9,6.5,6.5,6.5s6.5-2.9,6.5-6.5S75.8,14.3,72.3,14.3L72.3,14.3z
		 M72.3,24.6c-2.1,0-3.9-1.7-3.9-3.9s1.7-3.9,3.9-3.9c2.1,0,3.9,1.7,3.9,3.9S74.4,24.6,72.3,24.6L72.3,24.6z"/>
</g>
</svg>
