<?xml version="1.0" encoding="utf-8"?>
<!-- Generator: Adobe Illustrator 19.2.1, SVG Export Plug-In . SVG Version: 6.00 Build 0)  -->
<svg version="1.1" id="Capa_1" xmlns="http://www.w3.org/2000/svg" xmlns:xlink="http://www.w3.org/1999/xlink" x="0px" y="0px"
	 viewBox="0 0 25 25" style="enable-background:new 0 0 25 25;" xml:space="preserve">
<style type="text/css">
	.st0{fill:#1D1D1B;}
	.st1{fill:#FFFFFF;}
</style>
<g>
	<line class="st0" x1="22.1" y1="2.8" x2="2.9" y2="22.2"/>
	<path class="st1" d="M2.9,23.2c-0.3,0-0.5-0.1-0.7-0.3c-0.4-0.4-0.4-1,0-1.4L21.4,2.1c0.4-0.4,1-0.4,1.4,0c0.4,0.4,0.4,1,0,1.4
		L3.6,22.9C3.4,23.1,3.2,23.2,2.9,23.2z"/>
</g>
<path class="st1" d="M16.7,20.6c0.2,0.2,0.4,0.3,0.7,0.3c0.2,0,0.3,0,0.5-0.1c0.4-0.2,0.6-0.6,0.6-1V8.6L11.1,16L16.7,20.6z"/>
<path class="st1" d="M17.8,4.2C17.5,4,17,4.1,16.7,4.4l-5.9,4.9H7.6c-0.6,0-1.1,0.5-1.1,1.1v4.3c0,0.4,0.3,0.8,0.7,1l11-11.1
	C18.1,4.4,18,4.3,17.8,4.2z"/>
</svg>
