<?xml version="1.0" encoding="utf-8"?>
<!-- Generator: Adobe Illustrator 19.2.1, SVG Export Plug-In . SVG Version: 6.00 Build 0)  -->
<svg version="1.1" id="Capa_1" xmlns="http://www.w3.org/2000/svg" xmlns:xlink="http://www.w3.org/1999/xlink" x="0px" y="0px"
	 viewBox="0 0 25 25" style="enable-background:new 0 0 25 25;" xml:space="preserve">
<style type="text/css">
	.st0{fill:#FFFFFF;}
</style>
<g>
	<g>
		<path class="st0" d="M12.5,19.9c0,0.4-0.2,0.8-0.6,1C11.7,21,11.6,21,11.4,21c-0.2,0-0.5-0.1-0.7-0.3l-5.9-4.9H1.7
			c-0.6,0-1.1-0.5-1.1-1.1v-4.3c0-0.6,0.5-1.1,1.1-1.1h3.2l5.9-4.9c0.3-0.3,0.8-0.3,1.2-0.1c0.4,0.2,0.6,0.6,0.6,1V19.9z"/>
	</g>
	<g>
		<path class="st0" d="M16.7,18.2C16.6,18.2,16.6,18.2,16.7,18.2c-0.4,0-0.6-0.1-0.8-0.3l-0.1-0.1c-0.4-0.4-0.4-1-0.1-1.4
			c0.8-1.1,1.2-2.4,1.2-3.7c0-1.5-0.5-2.8-1.4-4c-0.4-0.4-0.3-1.1,0.1-1.4l0.1-0.1c0.2-0.2,0.5-0.3,0.8-0.3c0.3,0,0.6,0.2,0.8,0.4
			c1.3,1.6,1.9,3.5,1.9,5.5c0,1.9-0.6,3.7-1.7,5.2C17.3,18.1,17,18.2,16.7,18.2L16.7,18.2z"/>
	</g>
	<g>
		<path class="st0" d="M21.1,21.6c-0.2,0.2-0.5,0.4-0.8,0.4c0,0,0,0,0,0c-0.3,0-0.6-0.1-0.8-0.3l-0.1-0.1c-0.4-0.4-0.4-1-0.1-1.5
			c1.7-2.1,2.7-4.7,2.7-7.4c0-2.8-1-5.5-2.9-7.6c-0.4-0.4-0.4-1.1,0-1.5l0.1-0.1C19.5,3.1,19.8,3,20.1,3c0.3,0,0.6,0.1,0.8,0.4
			c2.3,2.5,3.5,5.8,3.5,9.2C24.4,15.9,23.3,19.1,21.1,21.6L21.1,21.6z"/>
	</g>
</g>
</svg>
