<?xml version="1.0" encoding="utf-8"?>
<!-- Generator: Adobe Illustrator 19.2.1, SVG Export Plug-In . SVG Version: 6.00 Build 0)  -->
<svg version="1.1" id="Capa_1" xmlns="http://www.w3.org/2000/svg" xmlns:xlink="http://www.w3.org/1999/xlink" x="0px" y="0px"
	 viewBox="0 0 55 55" style="enable-background:new 0 0 55 55;" xml:space="preserve">
<style type="text/css">
	.st0{fill:#FFFFFF;}
</style>
<g>
	<g>
		<path class="st0" d="M52.2,12.2V1.7c0-0.5-0.2-1-0.6-1.3c-0.4-0.3-0.9-0.4-1.4-0.2l-31.3,10c-0.6,0.2-1.1,0.8-1.1,1.5v30.7
			c-1.6-1.1-3.7-1.8-5.9-1.8c-2.3,0-4.5,0.7-6.2,2c-1.8,1.4-2.8,3.2-2.8,5.2s1,3.9,2.8,5.2c1.7,1.3,3.9,2,6.2,2s4.5-0.7,6.2-2
			c1.8-1.4,2.8-3.2,2.8-5.2V23.3l28.2-9v18c-1.6-1.1-3.7-1.8-5.9-1.8c-2.3,0-4.5,0.7-6.2,2c-1.8,1.4-2.8,3.2-2.8,5.2s1,3.9,2.8,5.2
			c1.7,1.3,3.9,2,6.2,2c2.3,0,4.5-0.7,6.2-2c1.8-1.4,2.8-3.2,2.8-5.2V12.2z M11.8,51.8c-3.2,0-5.9-1.9-5.9-4.1
			c0-2.2,2.7-4.1,5.9-4.1c3.2,0,5.9,1.9,5.9,4.1C17.8,49.9,15.1,51.8,11.8,51.8L11.8,51.8z M20.9,20v-7.3l28.2-9V11L20.9,20z
			 M43.2,41.8c-3.2,0-5.9-1.9-5.9-4.1c0-2.2,2.7-4.1,5.9-4.1c3.2,0,5.9,1.9,5.9,4.1C49.1,39.9,46.4,41.8,43.2,41.8L43.2,41.8z
			 M43.2,41.8"/>
	</g>
</g>
</svg>
